<svg width="516" height="462" viewBox="0 0 516 462" fill="none" xmlns="http://www.w3.org/2000/svg">
<path d="M27 456L61 365L410 410L394.519 456H27Z" fill="white"/>
<path d="M450.483 92.9233L261.542 23.8838C225.381 10.6705 185.337 29.1389 171.911 65.2215L63.128 357.59C46.111 403.325 79.9358 452 128.734 452H345.746C375.232 452 401.556 433.523 411.578 405.792L492.291 182.464C505.399 146.196 486.704 106.159 450.483 92.9233Z" fill="white" stroke="black"/>
<path d="M98.0464 267.926C124.05 277.429 152.764 276.213 177.871 264.546C202.978 252.878 222.422 231.715 231.925 205.711C241.429 179.708 240.213 150.994 228.546 125.887C216.878 100.78 195.715 81.3355 169.711 71.8322L133.879 169.879L98.0464 267.926Z" fill="url(#paint0_linear_1273_6)"/>
<path d="M146.022 409.92C120.605 381.269 123.226 337.439 151.876 312.022C180.527 286.605 224.357 289.226 249.775 317.876C275.192 346.527 272.571 390.358 243.92 415.775C215.269 441.192 171.439 438.571 146.022 409.92ZM227.671 337.485C213.084 321.042 187.928 319.538 171.485 334.125C155.042 348.713 153.538 373.868 168.125 390.311C182.713 406.754 207.868 408.259 224.311 393.671C240.754 379.084 242.259 353.929 227.671 337.485Z" fill="#F8BC17"/>
<path d="M290.658 130.051C292.196 130.585 293.434 131.356 294.372 132.365C295.31 133.374 295.899 134.541 296.137 135.866C296.395 137.182 296.273 138.56 295.772 140.001C295.277 141.428 294.518 142.585 293.496 143.472C292.487 144.364 291.295 144.913 289.92 145.118C288.558 145.329 287.115 145.169 285.591 144.64L280.125 142.741L285.192 128.152L290.658 130.051ZM286.431 141.485C287.775 141.951 288.948 141.947 289.951 141.473C290.955 140.999 291.69 140.089 292.156 138.745C292.623 137.402 292.612 136.226 292.124 135.218C291.636 134.21 290.72 133.472 289.376 133.005L287.692 132.421L284.747 140.9L286.431 141.485ZM301.458 135.805C300.835 135.588 300.385 135.23 300.108 134.73C299.85 134.221 299.815 133.697 300.003 133.156C300.195 132.602 300.548 132.212 301.061 131.987C301.593 131.752 302.17 131.743 302.794 131.96C303.403 132.172 303.837 132.532 304.095 133.041C304.372 133.541 304.414 134.067 304.222 134.622C304.034 135.162 303.674 135.549 303.142 135.784C302.629 136.009 302.068 136.016 301.458 135.805ZM302.806 137.624L298.779 149.22L295.225 147.986L299.253 136.389L302.806 137.624ZM309.845 139.882C310.663 140.166 311.318 140.58 311.813 141.124C312.321 141.673 312.647 142.276 312.792 142.932L313.362 141.29L316.916 142.524L312.895 154.1C312.525 155.167 311.976 156.055 311.248 156.765C310.529 157.493 309.644 157.962 308.593 158.172C307.556 158.386 306.393 158.269 305.105 157.822C303.387 157.225 302.136 156.333 301.354 155.145C300.566 153.971 300.336 152.664 300.665 151.226L304.177 152.446C304.134 152.928 304.277 153.365 304.606 153.759C304.93 154.167 305.397 154.477 306.007 154.688C306.741 154.943 307.398 154.931 307.976 154.65C308.564 154.389 309.019 153.794 309.342 152.865L309.912 151.224C309.378 151.644 308.746 151.921 308.016 152.056C307.291 152.176 306.52 152.095 305.702 151.811C304.746 151.479 303.964 150.936 303.357 150.181C302.754 149.413 302.381 148.499 302.236 147.44C302.111 146.372 302.255 145.242 302.668 144.05C303.082 142.859 303.667 141.889 304.423 141.143C305.193 140.401 306.051 139.923 306.995 139.707C307.939 139.492 308.889 139.55 309.845 139.882ZM311.348 147.088C311.656 146.201 311.65 145.415 311.329 144.729C311.022 144.048 310.515 143.585 309.809 143.339C309.102 143.094 308.411 143.141 307.734 143.48C307.076 143.811 306.593 144.419 306.285 145.306C305.977 146.193 305.974 146.983 306.276 147.678C306.596 148.364 307.11 148.83 307.817 149.075C308.523 149.321 309.208 149.271 309.871 148.927C310.548 148.588 311.04 147.975 311.348 147.088ZM321.693 142.832C321.069 142.616 320.619 142.258 320.342 141.758C320.084 141.249 320.049 140.724 320.237 140.184C320.429 139.63 320.782 139.24 321.295 139.015C321.827 138.78 322.405 138.771 323.028 138.988C323.638 139.199 324.071 139.56 324.329 140.068C324.606 140.568 324.648 141.095 324.456 141.649C324.268 142.19 323.908 142.577 323.377 142.812C322.864 143.037 322.302 143.044 321.693 142.832ZM323.041 144.651L319.013 156.248L315.459 155.013L319.487 143.417L323.041 144.651ZM329.098 156.374L328.052 159.387L326.243 158.759C324.955 158.312 324.059 157.651 323.555 156.777C323.056 155.89 323.054 154.732 323.55 153.305L325.152 148.692L323.739 148.201L324.764 145.25L326.177 145.741L327.159 142.914L330.712 144.149L329.731 146.975L332.058 147.783L331.033 150.734L328.706 149.926L327.089 154.581C326.969 154.928 326.965 155.206 327.079 155.416C327.192 155.626 327.442 155.799 327.83 155.933L329.098 156.374ZM331.345 154.01C331.759 152.819 332.344 151.85 333.1 151.103C333.87 150.361 334.728 149.883 335.672 149.667C336.616 149.452 337.566 149.51 338.522 149.842C339.34 150.126 339.995 150.54 340.49 151.084C340.998 151.633 341.324 152.236 341.469 152.892L342.039 151.25L345.593 152.484L341.565 164.081L338.011 162.846L338.582 161.204C338.048 161.625 337.411 161.893 336.672 162.008C335.947 162.129 335.176 162.048 334.358 161.764C333.416 161.437 332.641 160.896 332.034 160.141C331.431 159.373 331.058 158.459 330.913 157.4C330.788 156.332 330.932 155.202 331.345 154.01ZM340.025 157.048C340.333 156.161 340.327 155.375 340.006 154.689C339.699 154.008 339.192 153.545 338.486 153.299C337.779 153.054 337.088 153.101 336.411 153.44C335.753 153.771 335.27 154.379 334.962 155.266C334.654 156.153 334.651 156.944 334.953 157.638C335.273 158.324 335.787 158.79 336.494 159.035C337.2 159.281 337.885 159.231 338.548 158.887C339.225 158.548 339.717 157.935 340.025 157.048ZM353.031 150.829L347.69 166.208L344.136 164.973L349.477 149.595L353.031 150.829ZM369.224 162.601C368.93 163.446 368.467 164.155 367.833 164.727C367.205 165.285 366.414 165.639 365.461 165.789C364.509 165.94 363.436 165.808 362.245 165.394L360.042 164.629L358.223 169.866L354.669 168.632L359.736 154.043L365.493 156.042C366.657 156.446 367.571 156.989 368.235 157.67C368.899 158.351 369.309 159.114 369.465 159.96C369.622 160.806 369.541 161.687 369.224 162.601ZM362.956 162.474C363.635 162.71 364.196 162.726 364.64 162.523C365.083 162.32 365.405 161.927 365.607 161.345C365.81 160.763 365.8 160.255 365.578 159.821C365.356 159.387 364.906 159.052 364.227 158.816L362.294 158.145L361.024 161.803L362.956 162.474ZM374.548 164.707C375.185 164.214 375.878 163.895 376.626 163.752C377.38 163.594 378.137 163.648 378.899 163.912L377.593 167.674L376.616 167.335C375.73 167.027 374.997 166.99 374.419 167.224C373.846 167.444 373.393 168.032 373.061 168.988L371.192 174.37L367.638 173.136L371.666 161.54L375.219 162.774L374.548 164.707ZM381.748 178.223C380.612 177.829 379.671 177.23 378.925 176.428C378.193 175.63 377.72 174.689 377.506 173.606C377.306 172.527 377.416 171.385 377.834 170.18C378.248 168.988 378.875 168.034 379.714 167.316C380.558 166.584 381.522 166.135 382.604 165.968C383.687 165.8 384.797 165.914 385.933 166.309C387.069 166.703 388.01 167.302 388.756 168.104C389.502 168.907 389.979 169.857 390.188 170.954C390.402 172.037 390.302 173.175 389.888 174.366C389.474 175.558 388.838 176.517 387.98 177.244C387.141 177.961 386.173 178.402 385.076 178.564C383.994 178.731 382.884 178.618 381.748 178.223ZM382.816 175.147C383.495 175.383 384.157 175.333 384.801 174.998C385.459 174.668 385.95 174.039 386.272 173.11C386.594 172.182 386.607 171.387 386.309 170.724C386.025 170.067 385.543 169.62 384.865 169.384C384.172 169.144 383.51 169.193 382.88 169.533C382.254 169.86 381.778 170.494 381.45 171.436C381.128 172.364 381.102 173.155 381.372 173.807C381.656 174.465 382.137 174.912 382.816 175.147ZM391.074 174.755C391.488 173.563 392.073 172.594 392.829 171.848C393.599 171.106 394.456 170.627 395.4 170.412C396.345 170.197 397.295 170.255 398.251 170.587C399.013 170.852 399.65 171.251 400.163 171.787C400.69 172.327 401.039 172.929 401.212 173.595L403.081 168.212L406.635 169.447L401.294 184.825L397.74 183.591L398.317 181.929C397.792 182.367 397.16 182.645 396.421 182.761C395.696 182.881 394.925 182.8 394.108 182.516C393.152 182.184 392.37 181.641 391.762 180.886C391.16 180.118 390.786 179.204 390.642 178.145C390.516 177.076 390.66 175.946 391.074 174.755ZM399.754 177.793C400.062 176.906 400.055 176.12 399.735 175.434C399.428 174.753 398.921 174.29 398.214 174.044C397.508 173.799 396.816 173.846 396.139 174.185C395.481 174.516 394.998 175.124 394.69 176.011C394.382 176.898 394.379 177.688 394.681 178.383C395.002 179.069 395.516 179.535 396.222 179.78C396.929 180.026 397.614 179.976 398.277 179.632C398.953 179.293 399.446 178.68 399.754 177.793ZM419.343 178.099L415.316 189.695L411.762 188.461L412.31 186.882C411.772 187.269 411.136 187.514 410.402 187.616C409.686 187.709 408.955 187.626 408.206 187.366C407.32 187.058 406.604 186.592 406.06 185.969C405.521 185.331 405.194 184.573 405.08 183.695C404.966 182.817 405.084 181.872 405.435 180.861L407.788 174.086L411.321 175.313L409.134 181.61C408.865 182.386 408.856 183.058 409.109 183.627C409.362 184.196 409.827 184.599 410.506 184.834C411.199 185.075 411.821 185.05 412.372 184.76C412.923 184.471 413.333 183.938 413.602 183.162L415.79 176.865L419.343 178.099ZM419.176 184.538C419.594 183.333 420.202 182.364 421 181.632C421.812 180.905 422.738 180.45 423.779 180.269C424.834 180.092 425.93 180.2 427.066 180.595C428.521 181.1 429.601 181.902 430.306 183.001C431.025 184.105 431.296 185.402 431.12 186.894L427.338 185.58C427.327 184.583 426.864 183.925 425.95 183.608C425.299 183.381 424.69 183.457 424.124 183.835C423.563 184.199 423.119 184.852 422.792 185.794C422.464 186.736 422.406 187.531 422.616 188.179C422.83 188.812 423.263 189.242 423.914 189.468C424.829 189.786 425.599 189.556 426.226 188.78L430.008 190.094C429.232 191.346 428.217 192.189 426.964 192.623C425.711 193.058 424.364 193.024 422.923 192.524C421.787 192.129 420.86 191.536 420.141 190.743C419.437 189.955 418.992 189.024 418.806 187.95C418.634 186.881 418.757 185.744 419.176 184.538ZM437.961 194.184L436.915 197.197L435.106 196.569C433.818 196.122 432.922 195.461 432.418 194.587C431.919 193.7 431.917 192.543 432.413 191.116L434.015 186.502L432.602 186.011L433.627 183.06L435.04 183.551L436.022 180.724L439.575 181.959L438.594 184.785L440.921 185.594L439.896 188.545L437.569 187.736L435.952 192.391C435.832 192.738 435.828 193.016 435.942 193.226C436.055 193.436 436.305 193.609 436.693 193.743L437.961 194.184ZM277.534 167.836C279.072 168.371 280.31 169.142 281.249 170.151C282.187 171.16 282.775 172.327 283.014 173.652C283.271 174.968 283.149 176.346 282.649 177.787C282.153 179.214 281.394 180.371 280.372 181.258C279.363 182.15 278.171 182.699 276.796 182.904C275.434 183.114 273.991 182.955 272.467 182.425L267.002 180.527L272.069 165.938L277.534 167.836ZM273.307 179.27C274.651 179.737 275.824 179.733 276.828 179.259C277.831 178.784 278.566 177.875 279.033 176.531C279.499 175.187 279.489 174.011 279 173.003C278.512 171.995 277.596 171.258 276.252 170.791L274.569 170.207L271.624 178.686L273.307 179.27ZM295.111 183.583C294.996 183.915 294.855 184.255 294.688 184.6L286.645 181.807C286.451 182.547 286.487 183.18 286.754 183.708C287.04 184.226 287.48 184.589 288.076 184.796C288.963 185.104 289.709 184.944 290.315 184.316L294.098 185.63C293.639 186.324 293.048 186.887 292.323 187.319C291.613 187.755 290.816 188.014 289.934 188.096C289.052 188.178 288.14 188.055 287.197 187.728C286.061 187.333 285.134 186.74 284.416 185.947C283.698 185.154 283.245 184.22 283.059 183.147C282.873 182.073 282.99 180.933 283.408 179.728C283.827 178.523 284.435 177.554 285.233 176.822C286.044 176.094 286.978 175.642 288.033 175.465C289.088 175.288 290.191 175.399 291.341 175.799C292.463 176.189 293.379 176.771 294.088 177.545C294.797 178.319 295.243 179.227 295.424 180.268C295.62 181.314 295.516 182.419 295.111 183.583ZM291.799 181.385C292.011 180.775 291.972 180.218 291.681 179.713C291.391 179.209 290.934 178.848 290.31 178.632C289.714 178.425 289.149 178.422 288.613 178.624C288.09 178.831 287.67 179.236 287.352 179.84L291.799 181.385ZM299.567 192.024C298.556 191.673 297.715 191.187 297.046 190.566C296.377 189.946 295.917 189.258 295.666 188.503C295.421 187.735 295.4 186.967 295.605 186.2L299.117 187.42C299.019 187.836 299.093 188.226 299.339 188.591C299.585 188.956 299.95 189.223 300.435 189.391C300.878 189.545 301.247 189.58 301.54 189.495C301.852 189.402 302.056 189.217 302.152 188.94C302.268 188.607 302.179 188.304 301.885 188.032C301.597 187.745 301.098 187.37 300.39 186.907C299.626 186.424 299.003 185.983 298.521 185.582C298.044 185.168 297.684 184.663 297.441 184.066C297.202 183.455 297.22 182.755 297.495 181.965C297.726 181.3 298.115 180.76 298.663 180.345C299.23 179.921 299.921 179.672 300.739 179.599C301.57 179.53 302.477 179.667 303.461 180.009C304.916 180.514 305.934 181.271 306.515 182.28C307.11 183.294 307.262 184.419 306.973 185.653L303.69 184.513C303.774 184.092 303.704 183.711 303.481 183.369C303.272 183.033 302.925 182.78 302.44 182.612C302.025 182.467 301.677 182.44 301.398 182.529C301.123 182.605 300.938 182.781 300.841 183.058C300.726 183.39 300.813 183.7 301.101 183.986C301.404 184.278 301.9 184.637 302.591 185.063C303.373 185.583 303.995 186.047 304.459 186.457C304.927 186.852 305.277 187.362 305.511 187.987C305.763 188.602 305.756 189.314 305.491 190.122C305.255 190.801 304.85 191.344 304.274 191.749C303.717 192.146 303.025 192.371 302.199 192.426C301.387 192.485 300.509 192.351 299.567 192.024ZM312.729 182.063C312.106 181.847 311.656 181.488 311.379 180.989C311.121 180.48 311.086 179.955 311.274 179.415C311.466 178.861 311.819 178.471 312.332 178.245C312.864 178.011 313.441 178.002 314.065 178.218C314.674 178.43 315.108 178.79 315.366 179.299C315.643 179.799 315.685 180.326 315.493 180.88C315.305 181.421 314.945 181.808 314.413 182.043C313.9 182.268 313.339 182.275 312.729 182.063ZM314.077 183.882L310.05 195.479L306.496 194.244L310.524 182.648L314.077 183.882ZM321.116 186.141C321.934 186.424 322.589 186.839 323.084 187.383C323.592 187.932 323.918 188.534 324.063 189.19L324.633 187.548L328.187 188.783L324.166 200.358C323.796 201.425 323.247 202.313 322.519 203.023C321.8 203.752 320.915 204.221 319.864 204.43C318.827 204.644 317.664 204.528 316.376 204.08C314.658 203.484 313.407 202.591 312.625 201.403C311.837 200.229 311.607 198.923 311.936 197.485L315.448 198.704C315.405 199.186 315.548 199.624 315.877 200.018C316.201 200.425 316.668 200.735 317.278 200.947C318.012 201.202 318.669 201.189 319.247 200.909C319.835 200.647 320.29 200.052 320.613 199.124L321.183 197.482C320.649 197.902 320.017 198.18 319.287 198.314C318.562 198.435 317.791 198.353 316.973 198.07C316.017 197.737 315.235 197.194 314.628 196.44C314.025 195.672 313.652 194.758 313.507 193.698C313.382 192.63 313.526 191.5 313.939 190.309C314.353 189.117 314.938 188.148 315.694 187.401C316.464 186.66 317.322 186.181 318.266 185.966C319.21 185.75 320.16 185.809 321.116 186.141ZM322.619 193.347C322.927 192.46 322.921 191.674 322.6 190.988C322.293 190.307 321.786 189.843 321.08 189.598C320.373 189.353 319.682 189.4 319.005 189.739C318.347 190.069 317.864 190.678 317.556 191.565C317.248 192.451 317.245 193.242 317.547 193.937C317.867 194.623 318.381 195.088 319.088 195.334C319.794 195.579 320.479 195.53 321.142 195.186C321.819 194.846 322.311 194.233 322.619 193.347ZM337.867 192.005C339.225 192.477 340.152 193.295 340.647 194.461C341.161 195.618 341.151 196.965 340.617 198.503L338.264 205.278L334.731 204.051L336.918 197.754C337.188 196.978 337.196 196.306 336.944 195.737C336.691 195.168 336.225 194.765 335.546 194.529C334.867 194.294 334.253 194.321 333.702 194.611C333.151 194.901 332.74 195.433 332.471 196.209L330.284 202.506L326.73 201.272L330.758 189.676L334.312 190.91L333.777 192.448C334.316 192.06 334.94 191.827 335.651 191.748C336.366 191.655 337.105 191.74 337.867 192.005Z" fill="#353535"/>
<path d="M253.431 220.791L256.761 221.948L256.308 223.251L251.363 221.534L254.784 211.686L256.399 212.247L253.431 220.791ZM261.001 225.024C260.265 224.768 259.656 224.372 259.176 223.834C258.699 223.288 258.395 222.653 258.265 221.93C258.138 221.198 258.214 220.43 258.493 219.628C258.769 218.834 259.188 218.191 259.751 217.698C260.314 217.206 260.955 216.899 261.674 216.778C262.394 216.658 263.126 216.727 263.873 216.986C264.619 217.245 265.237 217.645 265.727 218.186C266.216 218.727 266.529 219.365 266.666 220.1C266.802 220.835 266.732 221.6 266.457 222.393C266.181 223.187 265.757 223.828 265.185 224.318C264.613 224.807 263.956 225.113 263.214 225.237C262.485 225.354 261.748 225.283 261.001 225.024ZM261.489 223.621C261.904 223.766 262.326 223.801 262.754 223.727C263.191 223.657 263.592 223.463 263.957 223.145C264.321 222.827 264.602 222.384 264.799 221.818C264.996 221.251 265.053 220.736 264.97 220.273C264.89 219.801 264.706 219.403 264.416 219.08C264.126 218.757 263.773 218.524 263.357 218.379C262.941 218.235 262.52 218.199 262.092 218.273C261.673 218.35 261.291 218.551 260.946 218.876C260.603 219.191 260.334 219.632 260.137 220.198C259.845 221.039 259.831 221.765 260.095 222.375C260.372 222.98 260.837 223.395 261.489 223.621ZM270.628 220.746C271.002 220.431 271.421 220.232 271.884 220.15C272.359 220.061 272.866 220.11 273.404 220.297L272.824 221.969L272.413 221.826C271.78 221.606 271.242 221.6 270.8 221.806C270.367 222.016 270.013 222.517 269.738 223.311L268.311 227.42L266.695 226.859L269.407 219.051L271.022 219.612L270.628 220.746ZM280.711 227.138C280.61 227.431 280.499 227.689 280.379 227.912L274.414 225.84C274.244 226.48 274.302 227.061 274.586 227.583C274.871 228.105 275.315 228.471 275.92 228.681C276.789 228.983 277.529 228.833 278.141 228.23L279.884 228.835C279.398 229.471 278.763 229.912 277.979 230.159C277.207 230.399 276.364 230.36 275.447 230.041C274.701 229.782 274.088 229.384 273.607 228.847C273.14 228.303 272.841 227.67 272.711 226.947C272.594 226.219 272.674 225.453 272.953 224.65C273.232 223.847 273.637 223.199 274.168 222.706C274.712 222.207 275.334 221.893 276.035 221.766C276.745 221.642 277.482 221.713 278.248 221.979C278.984 222.235 279.585 222.623 280.05 223.145C280.514 223.666 280.806 224.275 280.923 224.973C281.045 225.66 280.974 226.382 280.711 227.138ZM279.202 226.042C279.4 225.444 279.353 224.893 279.062 224.389C278.771 223.886 278.318 223.528 277.704 223.315C277.147 223.121 276.608 223.135 276.086 223.356C275.568 223.568 275.166 223.963 274.881 224.541L279.202 226.042ZM293.086 227.133C293.7 227.346 294.203 227.664 294.597 228.086C294.999 228.512 295.251 229.022 295.351 229.618C295.46 230.217 295.392 230.871 295.146 231.58L293.546 236.185L291.945 235.629L293.461 231.264C293.704 230.565 293.714 229.971 293.493 229.481C293.275 228.982 292.863 228.627 292.259 228.417C291.654 228.207 291.107 228.229 290.616 228.482C290.139 228.729 289.779 229.202 289.536 229.901L288.02 234.265L286.419 233.709L287.935 229.345C288.178 228.646 288.188 228.052 287.967 227.562C287.748 227.062 287.337 226.708 286.732 226.498C286.128 226.288 285.58 226.309 285.09 226.563C284.613 226.81 284.253 227.283 284.01 227.982L282.494 232.346L280.879 231.785L283.59 223.977L285.206 224.539L284.896 225.431C285.272 225.202 285.694 225.068 286.163 225.03C286.631 224.991 287.097 225.052 287.56 225.213C288.183 225.43 288.695 225.756 289.094 226.191C289.493 226.626 289.738 227.14 289.829 227.732C290.229 227.342 290.727 227.097 291.323 226.997C291.922 226.887 292.51 226.932 293.086 227.133ZM303.175 229.621C302.883 229.519 302.671 229.334 302.542 229.067C302.413 228.8 302.399 228.52 302.5 228.227C302.602 227.934 302.787 227.723 303.054 227.593C303.321 227.464 303.601 227.45 303.894 227.552C304.177 227.65 304.384 227.833 304.513 228.1C304.643 228.368 304.657 228.648 304.555 228.941C304.453 229.233 304.269 229.445 304.001 229.574C303.734 229.704 303.459 229.719 303.175 229.621ZM303.61 230.931L300.898 238.738L299.283 238.177L301.994 230.37L303.61 230.931ZM306.947 233.376C307.346 233.112 307.824 232.939 308.382 232.858C308.939 232.776 309.516 232.839 310.111 233.046C310.791 233.282 311.351 233.667 311.79 234.2C312.242 234.728 312.523 235.35 312.635 236.066C312.746 236.782 312.665 237.532 312.393 238.316C312.121 239.1 311.715 239.748 311.178 240.26C310.643 240.763 310.032 241.09 309.344 241.243C308.668 241.389 307.991 241.344 307.31 241.108C306.715 240.901 306.227 240.6 305.846 240.203C305.469 239.796 305.196 239.363 305.028 238.902L303.345 243.748L301.729 243.187L305.731 231.667L307.346 232.228L306.947 233.376ZM310.749 237.745C310.936 237.207 310.984 236.705 310.891 236.238C310.812 235.766 310.622 235.367 310.323 235.041C310.036 234.708 309.685 234.47 309.269 234.325C308.863 234.184 308.44 234.154 307.999 234.234C307.568 234.317 307.17 234.517 306.806 234.835C306.451 235.157 306.179 235.586 305.992 236.125C305.805 236.663 305.75 237.173 305.826 237.655C305.915 238.131 306.103 238.535 306.39 238.867C306.686 239.203 307.037 239.441 307.443 239.582C307.859 239.727 308.282 239.757 308.714 239.674C309.157 239.585 309.559 239.375 309.917 239.044C310.285 238.717 310.562 238.284 310.749 237.745ZM315.412 243.922C314.798 243.709 314.283 243.408 313.867 243.02C313.464 242.626 313.186 242.191 313.034 241.715C312.885 241.229 312.884 240.747 313.029 240.268L314.701 240.848C314.614 241.189 314.673 241.522 314.878 241.847C315.095 242.166 315.421 242.401 315.856 242.552C316.309 242.709 316.688 242.746 316.993 242.661C317.31 242.57 317.517 242.388 317.612 242.114C317.714 241.821 317.647 241.554 317.413 241.314C317.188 241.077 316.803 240.769 316.258 240.389C315.728 240.025 315.305 239.703 314.989 239.424C314.673 239.145 314.432 238.802 314.267 238.395C314.11 237.992 314.121 237.535 314.298 237.025C314.442 236.609 314.696 236.274 315.06 236.019C315.427 235.755 315.872 235.602 316.394 235.561C316.926 235.524 317.489 235.608 318.084 235.815C318.972 236.123 319.607 236.598 319.988 237.238C320.382 237.873 320.463 238.584 320.232 239.371L318.616 238.81C318.709 238.451 318.664 238.123 318.481 237.827C318.299 237.53 317.99 237.307 317.555 237.156C317.13 237.008 316.776 236.975 316.494 237.057C316.211 237.139 316.024 237.312 315.932 237.576C315.86 237.784 315.875 237.985 315.977 238.179C316.079 238.374 316.224 238.551 316.412 238.711C316.603 238.863 316.889 239.073 317.272 239.344C317.786 239.692 318.195 240.008 318.498 240.294C318.814 240.573 319.052 240.909 319.211 241.303C319.371 241.698 319.368 242.147 319.204 242.651C319.05 243.095 318.789 243.449 318.422 243.713C318.055 243.977 317.61 244.13 317.088 244.171C316.575 244.215 316.016 244.132 315.412 243.922ZM329.974 240.087L327.262 247.895L325.647 247.334L325.966 246.413C325.6 246.645 325.176 246.784 324.695 246.828C324.226 246.867 323.76 246.806 323.298 246.645C322.684 246.432 322.175 246.112 321.773 245.687C321.379 245.264 321.128 244.753 321.019 244.154C320.918 243.558 320.991 242.906 321.238 242.198L322.832 237.607L324.433 238.163L322.922 242.513C322.68 243.212 322.667 243.811 322.886 244.311C323.107 244.8 323.52 245.15 324.125 245.36C324.729 245.57 325.27 245.552 325.748 245.305C326.238 245.051 326.605 244.575 326.847 243.876L328.358 239.526L329.974 240.087ZM341.6 243.983C342.214 244.196 342.718 244.514 343.111 244.936C343.514 245.362 343.765 245.872 343.865 246.468C343.975 247.067 343.906 247.721 343.66 248.43L342.061 253.035L340.46 252.479L341.976 248.114C342.218 247.415 342.229 246.821 342.007 246.331C341.789 245.832 341.378 245.477 340.773 245.267C340.169 245.057 339.621 245.079 339.131 245.332C338.653 245.579 338.293 246.052 338.051 246.751L336.535 251.115L334.934 250.559L336.449 246.195C336.692 245.496 336.703 244.902 336.481 244.412C336.263 243.912 335.852 243.558 335.247 243.348C334.642 243.138 334.095 243.16 333.605 243.413C333.127 243.66 332.767 244.133 332.524 244.832L331.009 249.196L329.393 248.635L332.105 240.828L333.72 241.389L333.41 242.281C333.786 242.052 334.209 241.918 334.677 241.88C335.146 241.841 335.611 241.902 336.074 242.063C336.698 242.28 337.209 242.606 337.608 243.041C338.008 243.476 338.253 243.99 338.343 244.582C338.744 244.192 339.242 243.947 339.837 243.847C340.437 243.737 341.024 243.782 341.6 243.983ZM348.627 250.901C348.899 250.117 349.301 249.478 349.832 248.985C350.373 248.496 350.979 248.182 351.651 248.045C352.336 247.902 353.023 247.95 353.713 248.19C354.223 248.367 354.684 248.654 355.097 249.051C355.522 249.442 355.817 249.873 355.982 250.343L357.291 246.574L358.921 247.14L355.279 257.626L353.649 257.06L354.058 255.884C353.662 256.17 353.185 256.353 352.628 256.435C352.08 256.52 351.503 256.457 350.899 256.247C350.218 256.011 349.654 255.624 349.205 255.087C348.769 254.544 348.493 253.908 348.375 253.179C348.271 252.444 348.355 251.685 348.627 250.901ZM355.008 253.149C355.195 252.61 355.244 252.103 355.155 251.628C355.075 251.156 354.892 250.753 354.605 250.421C354.319 250.088 353.967 249.85 353.552 249.705C353.136 249.561 352.713 249.531 352.282 249.614C351.854 249.687 351.457 249.883 351.093 250.201C350.741 250.513 350.472 250.938 350.285 251.477C350.098 252.015 350.042 252.525 350.119 253.007C350.204 253.492 350.389 253.905 350.672 254.247C350.968 254.583 351.32 254.821 351.726 254.962C352.142 255.107 352.565 255.137 352.996 255.054C353.427 254.971 353.82 254.769 354.175 254.448C354.543 254.12 354.821 253.687 355.008 253.149ZM360.743 259.666C360.006 259.41 359.397 259.014 358.917 258.476C358.44 257.93 358.137 257.295 358.006 256.572C357.88 255.84 357.956 255.072 358.235 254.27C358.51 253.476 358.929 252.833 359.492 252.34C360.055 251.848 360.696 251.541 361.415 251.42C362.135 251.3 362.868 251.369 363.614 251.628C364.36 251.887 364.978 252.287 365.468 252.828C365.958 253.369 366.271 254.007 366.407 254.742C366.543 255.477 366.473 256.242 366.198 257.035C365.922 257.829 365.498 258.47 364.926 258.96C364.354 259.449 363.697 259.755 362.955 259.879C362.227 259.996 361.489 259.925 360.743 259.666ZM361.23 258.263C361.646 258.408 362.067 258.443 362.495 258.369C362.933 258.299 363.333 258.105 363.698 257.787C364.062 257.469 364.343 257.026 364.54 256.46C364.737 255.893 364.794 255.378 364.711 254.915C364.632 254.443 364.447 254.045 364.157 253.722C363.867 253.399 363.514 253.166 363.098 253.021C362.683 252.877 362.261 252.842 361.833 252.915C361.415 252.992 361.033 253.193 360.687 253.518C360.345 253.833 360.075 254.274 359.878 254.84C359.586 255.681 359.572 256.407 359.837 257.017C360.114 257.622 360.578 258.037 361.23 258.263ZM371.694 251.576L368.052 262.062L366.436 261.501L370.078 251.015L371.694 251.576ZM373.515 264.102C372.778 263.846 372.169 263.45 371.689 262.912C371.212 262.366 370.909 261.731 370.779 261.008C370.652 260.276 370.728 259.508 371.007 258.706C371.282 257.912 371.701 257.269 372.264 256.776C372.827 256.284 373.468 255.977 374.187 255.856C374.907 255.736 375.64 255.805 376.386 256.064C377.132 256.323 377.75 256.723 378.24 257.264C378.73 257.805 379.043 258.443 379.179 259.178C379.315 259.913 379.246 260.678 378.97 261.471C378.694 262.265 378.27 262.906 377.698 263.396C377.126 263.885 376.469 264.191 375.728 264.315C374.999 264.432 374.261 264.361 373.515 264.102ZM374.002 262.699C374.418 262.844 374.839 262.879 375.267 262.805C375.705 262.735 376.106 262.541 376.47 262.223C376.835 261.905 377.115 261.462 377.312 260.896C377.509 260.329 377.566 259.814 377.483 259.351C377.404 258.879 377.219 258.481 376.929 258.158C376.639 257.835 376.286 257.602 375.87 257.457C375.455 257.313 375.033 257.278 374.605 257.351C374.187 257.428 373.805 257.629 373.459 257.954C373.117 258.269 372.847 258.71 372.65 259.276C372.358 260.117 372.344 260.843 372.609 261.453C372.886 262.058 373.35 262.473 374.002 262.699ZM383.142 259.824C383.516 259.509 383.934 259.31 384.397 259.228C384.872 259.139 385.379 259.188 385.918 259.375L385.337 261.047L384.926 260.904C384.293 260.684 383.756 260.678 383.314 260.884C382.881 261.094 382.527 261.595 382.251 262.389L380.824 266.498L379.209 265.937L381.92 258.129L383.536 258.69L383.142 259.824ZM391.117 270.216C390.503 270.003 389.988 269.702 389.572 269.314C389.169 268.92 388.892 268.485 388.74 268.009C388.591 267.523 388.589 267.041 388.734 266.562L390.406 267.142C390.32 267.483 390.379 267.816 390.583 268.141C390.801 268.46 391.127 268.695 391.561 268.846C392.015 269.003 392.394 269.04 392.698 268.955C393.016 268.864 393.222 268.681 393.317 268.408C393.419 268.115 393.353 267.848 393.118 267.608C392.894 267.371 392.509 267.063 391.963 266.683C391.433 266.319 391.01 265.997 390.694 265.718C390.378 265.439 390.138 265.096 389.972 264.689C389.816 264.286 389.826 263.829 390.003 263.319C390.148 262.903 390.402 262.568 390.766 262.313C391.133 262.049 391.577 261.896 392.1 261.855C392.631 261.818 393.195 261.902 393.79 262.109C394.678 262.417 395.312 262.892 395.693 263.532C396.087 264.167 396.168 264.878 395.937 265.665L394.322 265.104C394.415 264.745 394.37 264.417 394.187 264.121C394.004 263.824 393.695 263.6 393.261 263.45C392.836 263.302 392.482 263.269 392.199 263.351C391.917 263.433 391.73 263.606 391.638 263.87C391.566 264.078 391.581 264.279 391.682 264.473C391.784 264.668 391.929 264.845 392.117 265.005C392.308 265.156 392.595 265.367 392.977 265.638C393.491 265.986 393.9 266.302 394.203 266.588C394.519 266.867 394.757 267.203 394.917 267.597C395.076 267.992 395.074 268.441 394.909 268.945C394.755 269.389 394.494 269.743 394.127 270.007C393.76 270.271 393.316 270.424 392.793 270.465C392.28 270.509 391.722 270.426 391.117 270.216ZM399.789 263.176C399.497 263.075 399.285 262.89 399.156 262.623C399.026 262.356 399.013 262.076 399.114 261.783C399.216 261.49 399.401 261.279 399.668 261.149C399.935 261.02 400.215 261.006 400.508 261.108C400.791 261.206 400.998 261.389 401.127 261.656C401.257 261.924 401.271 262.204 401.169 262.496C401.067 262.789 400.883 263 400.615 263.13C400.348 263.259 400.073 263.275 399.789 263.176ZM400.224 264.486L397.512 272.294L395.897 271.733L398.608 263.925L400.224 264.486ZM403.771 267.195L402.27 271.517C402.169 271.81 402.161 272.045 402.247 272.224C402.346 272.396 402.561 272.539 402.892 272.654L403.884 272.998L403.416 274.345L402.141 273.902C401.413 273.649 400.915 273.285 400.646 272.811C400.377 272.336 400.375 271.716 400.641 270.951L402.142 266.629L401.221 266.31L401.679 264.992L402.6 265.312L403.274 263.37L404.903 263.936L404.229 265.878L406.128 266.537L405.67 267.855L403.771 267.195ZM243.334 242.913C243.607 242.129 244.008 241.49 244.54 240.997C245.08 240.508 245.687 240.194 246.359 240.057C247.044 239.914 247.726 239.96 248.406 240.197C249.02 240.41 249.511 240.718 249.879 241.121C250.26 241.518 250.525 241.944 250.675 242.398L251.068 241.264L252.698 241.83L249.986 249.638L248.357 249.072L248.76 247.91C248.358 248.183 247.879 248.36 247.321 248.442C246.763 248.524 246.182 248.459 245.578 248.249C244.907 248.016 244.352 247.633 243.913 247.099C243.477 246.556 243.2 245.92 243.083 245.192C242.978 244.457 243.062 243.697 243.334 242.913ZM249.715 245.161C249.902 244.622 249.951 244.115 249.862 243.64C249.783 243.168 249.6 242.765 249.313 242.433C249.026 242.1 248.675 241.862 248.259 241.718C247.843 241.573 247.42 241.543 246.989 241.626C246.561 241.699 246.165 241.895 245.8 242.213C245.449 242.525 245.179 242.95 244.992 243.489C244.805 244.027 244.75 244.537 244.826 245.019C244.912 245.504 245.096 245.917 245.38 246.259C245.676 246.595 246.027 246.833 246.433 246.974C246.849 247.119 247.272 247.149 247.703 247.066C248.135 246.983 248.528 246.781 248.883 246.46C249.251 246.132 249.528 245.699 249.715 245.161ZM264.315 245.722C264.929 245.935 265.433 246.253 265.826 246.676C266.228 247.101 266.48 247.612 266.58 248.208C266.689 248.807 266.621 249.461 266.375 250.169L264.776 254.774L263.174 254.218L264.69 249.854C264.933 249.155 264.944 248.56 264.722 248.071C264.504 247.571 264.092 247.217 263.488 247.007C262.883 246.797 262.336 246.818 261.846 247.072C261.368 247.319 261.008 247.792 260.765 248.491L259.249 252.855L257.648 252.299L259.164 247.935C259.407 247.235 259.417 246.641 259.196 246.151C258.978 245.652 258.566 245.297 257.962 245.087C257.357 244.877 256.81 244.899 256.319 245.152C255.842 245.399 255.482 245.872 255.239 246.571L253.723 250.936L252.108 250.374L254.82 242.567L256.435 243.128L256.125 244.021C256.501 243.791 256.923 243.658 257.392 243.619C257.86 243.581 258.326 243.642 258.789 243.803C259.412 244.019 259.924 244.345 260.323 244.78C260.722 245.215 260.967 245.729 261.058 246.322C261.458 245.931 261.956 245.686 262.552 245.586C263.151 245.477 263.739 245.522 264.315 245.722ZM275.409 253.878C275.307 254.171 275.197 254.429 275.077 254.652L269.111 252.58C268.942 253.22 269 253.801 269.284 254.323C269.568 254.846 270.013 255.212 270.617 255.422C271.487 255.724 272.227 255.573 272.838 254.97L274.581 255.576C274.096 256.212 273.461 256.653 272.677 256.899C271.905 257.139 271.061 257.1 270.145 256.782C269.399 256.523 268.785 256.125 268.305 255.587C267.838 255.044 267.539 254.411 267.409 253.688C267.291 252.959 267.372 252.193 267.651 251.39C267.93 250.587 268.335 249.939 268.866 249.446C269.41 248.947 270.032 248.634 270.733 248.507C271.443 248.383 272.18 248.454 272.945 248.719C273.682 248.975 274.283 249.364 274.748 249.885C275.212 250.407 275.503 251.016 275.621 251.713C275.742 252.401 275.672 253.123 275.409 253.878ZM273.9 252.783C274.097 252.184 274.05 251.633 273.759 251.13C273.468 250.627 273.016 250.268 272.402 250.055C271.845 249.862 271.305 249.875 270.784 250.097C270.266 250.308 269.864 250.703 269.578 251.282L273.9 252.783ZM279.715 252.69L278.214 257.012C278.112 257.305 278.105 257.541 278.191 257.719C278.29 257.891 278.505 258.034 278.835 258.149L279.827 258.493L279.36 259.84L278.084 259.397C277.357 259.144 276.859 258.78 276.59 258.306C276.32 257.831 276.319 257.211 276.584 256.446L278.085 252.124L277.164 251.805L277.622 250.487L278.543 250.807L279.217 248.865L280.847 249.431L280.173 251.373L282.071 252.032L281.614 253.35L279.715 252.69ZM283.294 259.031L280.221 262.346L279.173 261.982L281.537 258.42L283.294 259.031ZM288.532 258.643C288.811 257.84 289.216 257.192 289.747 256.699C290.291 256.199 290.908 255.885 291.599 255.754C292.29 255.624 293.009 255.688 293.755 255.947C294.7 256.275 295.401 256.773 295.857 257.439C296.326 258.1 296.525 258.884 296.454 259.79L294.711 259.185C294.704 258.748 294.582 258.367 294.346 258.042C294.11 257.716 293.755 257.472 293.283 257.308C292.622 257.078 292.011 257.13 291.45 257.465C290.902 257.793 290.482 258.378 290.19 259.218C289.898 260.059 289.863 260.783 290.087 261.39C290.319 262 290.766 262.42 291.428 262.649C292.363 262.974 293.124 262.778 293.712 262.061L295.455 262.667C294.952 263.382 294.308 263.867 293.52 264.123C292.736 264.369 291.881 264.331 290.955 264.01C290.209 263.751 289.605 263.356 289.144 262.825C288.685 262.285 288.396 261.655 288.275 260.935C288.167 260.21 288.253 259.446 288.532 258.643ZM299.551 266.995C298.814 266.739 298.205 266.343 297.725 265.805C297.248 265.259 296.944 264.624 296.814 263.901C296.687 263.169 296.763 262.401 297.042 261.598C297.318 260.805 297.737 260.162 298.3 259.669C298.863 259.177 299.504 258.87 300.223 258.749C300.943 258.629 301.675 258.698 302.422 258.957C303.168 259.216 303.786 259.616 304.276 260.157C304.765 260.697 305.078 261.336 305.215 262.071C305.351 262.806 305.281 263.571 305.006 264.364C304.73 265.158 304.306 265.799 303.734 266.289C303.162 266.778 302.505 267.084 301.763 267.208C301.034 267.325 300.297 267.254 299.551 266.995ZM300.038 265.592C300.453 265.737 300.875 265.772 301.303 265.698C301.74 265.628 302.141 265.434 302.506 265.116C302.87 264.798 303.151 264.355 303.348 263.788C303.545 263.222 303.602 262.707 303.519 262.244C303.439 261.772 303.255 261.374 302.965 261.051C302.675 260.728 302.322 260.495 301.906 260.35C301.49 260.206 301.069 260.17 300.641 260.244C300.222 260.321 299.84 260.522 299.495 260.846C299.152 261.162 298.883 261.603 298.686 262.169C298.394 263.01 298.38 263.736 298.644 264.346C298.922 264.951 299.386 265.366 300.038 265.592ZM311.939 262.263C312.553 262.476 313.057 262.794 313.45 263.216C313.853 263.642 314.104 264.153 314.204 264.749C314.304 265.344 314.231 265.996 313.985 266.705L312.386 271.31L310.785 270.754L312.3 266.39C312.543 265.691 312.554 265.096 312.332 264.606C312.114 264.107 311.702 263.753 311.098 263.543C310.493 263.333 309.946 263.354 309.456 263.607C308.978 263.854 308.618 264.327 308.375 265.027L306.86 269.391L305.244 268.83L307.956 261.022L309.571 261.583L309.261 262.476C309.637 262.247 310.06 262.113 310.528 262.074C311.006 262.039 311.476 262.102 311.939 262.263ZM317.236 273.138C316.622 272.924 316.107 272.624 315.691 272.236C315.288 271.842 315.011 271.407 314.858 270.93C314.71 270.445 314.708 269.962 314.853 269.483L316.525 270.064C316.438 270.405 316.497 270.737 316.702 271.063C316.919 271.382 317.245 271.617 317.68 271.767C318.133 271.925 318.512 271.961 318.817 271.877C319.134 271.786 319.341 271.603 319.436 271.329C319.538 271.036 319.471 270.77 319.237 270.53C319.012 270.293 318.627 269.985 318.082 269.605C317.552 269.241 317.129 268.919 316.813 268.64C316.497 268.361 316.256 268.018 316.091 267.611C315.934 267.207 315.945 266.75 316.122 266.24C316.266 265.825 316.521 265.49 316.884 265.235C317.251 264.971 317.696 264.818 318.218 264.777C318.75 264.739 319.313 264.824 319.909 265.031C320.797 265.339 321.431 265.814 321.812 266.454C322.206 267.088 322.287 267.799 322.056 268.587L320.44 268.026C320.533 267.667 320.488 267.339 320.306 267.042C320.123 266.746 319.814 266.522 319.379 266.371C318.954 266.224 318.601 266.191 318.318 266.273C318.036 266.354 317.848 266.528 317.757 266.792C317.684 267 317.699 267.201 317.801 267.395C317.903 267.589 318.048 267.767 318.236 267.927C318.427 268.078 318.713 268.289 319.096 268.559C319.61 268.907 320.019 269.224 320.322 269.509C320.638 269.788 320.876 270.125 321.035 270.519C321.195 270.913 321.192 271.362 321.028 271.866C320.874 272.31 320.613 272.664 320.246 272.929C319.879 273.193 319.434 273.345 318.912 273.386C318.399 273.43 317.84 273.348 317.236 273.138ZM330.593 273.045C330.492 273.338 330.381 273.596 330.261 273.819L324.296 271.747C324.126 272.387 324.184 272.968 324.468 273.49C324.753 274.012 325.197 274.378 325.802 274.588C326.671 274.89 327.411 274.74 328.023 274.137L329.766 274.742C329.28 275.378 328.645 275.819 327.861 276.066C327.089 276.306 326.246 276.267 325.329 275.949C324.583 275.689 323.97 275.291 323.489 274.754C323.022 274.21 322.723 273.577 322.593 272.855C322.476 272.126 322.556 271.36 322.835 270.557C323.114 269.754 323.519 269.106 324.05 268.613C324.594 268.114 325.216 267.8 325.917 267.673C326.627 267.549 327.364 267.62 328.13 267.886C328.866 268.142 329.467 268.531 329.932 269.052C330.396 269.573 330.688 270.182 330.805 270.88C330.927 271.567 330.856 272.289 330.593 273.045ZM329.084 271.949C329.282 271.351 329.235 270.8 328.944 270.297C328.653 269.793 328.2 269.435 327.586 269.222C327.029 269.028 326.49 269.042 325.968 269.263C325.45 269.475 325.048 269.87 324.763 270.448L329.084 271.949ZM331.581 273.594C331.859 272.791 332.264 272.143 332.796 271.65C333.339 271.151 333.957 270.836 334.648 270.706C335.339 270.575 336.058 270.64 336.804 270.899C337.749 271.227 338.449 271.724 338.906 272.391C339.375 273.052 339.574 273.835 339.503 274.742L337.76 274.137C337.752 273.7 337.631 273.319 337.394 272.994C337.158 272.668 336.804 272.423 336.332 272.259C335.67 272.029 335.059 272.082 334.499 272.416C333.95 272.745 333.53 273.329 333.238 274.17C332.946 275.011 332.912 275.735 333.135 276.341C333.368 276.952 333.815 277.371 334.476 277.601C335.411 277.926 336.173 277.73 336.761 277.013L338.503 277.618C338.001 278.333 337.356 278.818 336.569 279.074C335.785 279.321 334.93 279.283 334.004 278.961C333.257 278.702 332.654 278.307 332.192 277.776C331.734 277.236 331.445 276.606 331.324 275.887C331.216 275.161 331.302 274.397 331.581 273.594ZM343.396 274.808L341.895 279.13C341.793 279.422 341.785 279.658 341.871 279.836C341.97 280.008 342.185 280.152 342.516 280.266L343.508 280.611L343.04 281.957L341.765 281.514C341.038 281.261 340.539 280.898 340.27 280.423C340.001 279.949 339.999 279.329 340.265 278.564L341.766 274.242L340.845 273.922L341.303 272.604L342.224 272.924L342.898 270.983L344.527 271.549L343.853 273.49L345.752 274.15L345.294 275.467L343.396 274.808ZM353.107 280.864C353.005 281.157 352.895 281.415 352.775 281.638L346.809 279.566C346.64 280.206 346.698 280.787 346.982 281.309C347.266 281.832 347.711 282.198 348.315 282.408C349.185 282.71 349.925 282.559 350.536 281.956L352.279 282.562C351.794 283.198 351.159 283.639 350.375 283.885C349.603 284.125 348.759 284.086 347.843 283.768C347.097 283.509 346.483 283.111 346.003 282.573C345.536 282.03 345.237 281.397 345.107 280.674C344.989 279.945 345.07 279.179 345.349 278.376C345.628 277.573 346.033 276.925 346.564 276.432C347.108 275.933 347.73 275.62 348.431 275.493C349.141 275.369 349.878 275.44 350.643 275.705C351.38 275.961 351.981 276.35 352.446 276.871C352.91 277.393 353.201 278.002 353.319 278.699C353.44 279.387 353.37 280.109 353.107 280.864ZM351.598 279.769C351.795 279.17 351.748 278.619 351.457 278.116C351.166 277.613 350.714 277.254 350.1 277.041C349.543 276.848 349.003 276.861 348.482 277.083C347.964 277.294 347.562 277.689 347.276 278.268L351.598 279.769ZM357.413 279.676L355.912 283.998C355.81 284.291 355.803 284.526 355.889 284.705C355.988 284.877 356.203 285.02 356.533 285.135L357.525 285.479L357.058 286.826L355.782 286.383C355.055 286.13 354.557 285.766 354.288 285.292C354.018 284.817 354.017 284.197 354.282 283.432L355.783 279.11L354.862 278.791L355.32 277.473L356.241 277.793L356.915 275.851L358.545 276.417L357.871 278.359L359.769 279.018L359.312 280.336L357.413 279.676ZM368.329 281.991L365.617 289.798L364.002 289.237L364.322 288.316C363.955 288.549 363.531 288.688 363.05 288.732C362.581 288.771 362.116 288.709 361.653 288.549C361.039 288.335 360.531 288.016 360.128 287.59C359.735 287.168 359.483 286.657 359.374 286.058C359.274 285.462 359.347 284.81 359.593 284.102L361.187 279.511L362.789 280.067L361.278 284.417C361.035 285.116 361.023 285.715 361.241 286.214C361.462 286.704 361.876 287.054 362.48 287.264C363.085 287.474 363.626 287.455 364.103 287.208C364.593 286.955 364.96 286.479 365.203 285.78L366.714 281.43L368.329 281.991ZM371.682 284.426C372.056 284.111 372.474 283.912 372.937 283.83C373.412 283.741 373.919 283.79 374.458 283.977L373.877 285.649L373.466 285.506C372.833 285.286 372.296 285.279 371.854 285.486C371.421 285.695 371.067 286.197 370.791 286.991L369.364 291.1L367.749 290.539L370.46 282.731L372.076 283.292L371.682 284.426ZM234.476 268.418C234.748 267.634 235.15 266.996 235.681 266.503C236.222 266.013 236.828 265.7 237.5 265.563C238.185 265.419 238.868 265.466 239.548 265.702C240.162 265.915 240.653 266.223 241.021 266.627C241.402 267.024 241.667 267.449 241.816 267.903L242.21 266.77L243.839 267.336L241.128 275.143L239.498 274.577L239.902 273.415C239.5 273.688 239.02 273.866 238.462 273.947C237.905 274.029 237.324 273.965 236.719 273.755C236.048 273.522 235.493 273.139 235.054 272.605C234.618 272.062 234.342 271.426 234.224 270.697C234.12 269.962 234.203 269.202 234.476 268.418ZM240.856 270.666C241.043 270.128 241.093 269.621 241.004 269.145C240.924 268.673 240.741 268.271 240.454 267.938C240.167 267.606 239.816 267.367 239.401 267.223C238.985 267.079 238.562 267.048 238.13 267.131C237.703 267.205 237.306 267.401 236.942 267.719C236.59 268.031 236.321 268.456 236.134 268.994C235.947 269.533 235.891 270.043 235.967 270.524C236.053 271.009 236.238 271.423 236.521 271.765C236.817 272.1 237.169 272.339 237.575 272.48C237.99 272.624 238.414 272.655 238.845 272.572C239.276 272.489 239.669 272.286 240.024 271.965C240.392 271.638 240.669 271.205 240.856 270.666ZM244.079 271.754C244.351 270.97 244.753 270.331 245.284 269.838C245.825 269.348 246.431 269.035 247.103 268.898C247.788 268.755 248.476 268.803 249.165 269.042C249.675 269.22 250.137 269.507 250.549 269.904C250.974 270.295 251.269 270.726 251.434 271.196L252.743 267.427L254.373 267.993L250.731 278.478L249.101 277.912L249.51 276.736C249.114 277.022 248.638 277.206 248.08 277.288C247.532 277.373 246.955 277.31 246.351 277.1C245.671 276.864 245.106 276.477 244.658 275.94C244.222 275.397 243.945 274.761 243.828 274.032C243.723 273.297 243.807 272.538 244.079 271.754ZM250.46 274.002C250.647 273.463 250.696 272.956 250.607 272.481C250.527 272.009 250.344 271.606 250.058 271.274C249.771 270.941 249.42 270.703 249.004 270.558C248.588 270.414 248.165 270.383 247.734 270.467C247.306 270.54 246.91 270.736 246.545 271.054C246.193 271.366 245.924 271.791 245.737 272.33C245.55 272.868 245.495 273.378 245.571 273.86C245.656 274.345 245.841 274.758 246.124 275.1C246.421 275.436 246.772 275.674 247.178 275.815C247.594 275.96 248.017 275.99 248.448 275.907C248.879 275.824 249.272 275.622 249.628 275.3C249.995 274.973 250.273 274.54 250.46 274.002ZM256.745 270.659C256.453 270.557 256.241 270.373 256.112 270.105C255.983 269.838 255.969 269.558 256.07 269.265C256.172 268.972 256.357 268.761 256.624 268.632C256.891 268.502 257.171 268.488 257.464 268.59C257.747 268.689 257.954 268.871 258.083 269.139C258.213 269.406 258.227 269.686 258.125 269.979C258.023 270.272 257.839 270.483 257.571 270.612C257.304 270.742 257.029 270.757 256.745 270.659ZM257.18 271.969L254.468 279.776L252.853 279.215L255.564 271.408L257.18 271.969ZM260.517 274.414C260.916 274.15 261.394 273.978 261.952 273.896C262.509 273.815 263.086 273.877 263.681 274.084C264.361 274.32 264.921 274.705 265.36 275.239C265.812 275.766 266.093 276.388 266.205 277.104C266.316 277.82 266.235 278.57 265.963 279.354C265.691 280.138 265.285 280.786 264.748 281.298C264.213 281.801 263.602 282.128 262.914 282.281C262.238 282.428 261.561 282.383 260.88 282.146C260.285 281.94 259.797 281.638 259.416 281.241C259.039 280.835 258.766 280.401 258.598 279.94L256.915 284.786L255.299 284.225L259.3 272.705L260.916 273.267L260.517 274.414ZM264.319 278.783C264.506 278.245 264.554 277.743 264.461 277.277C264.382 276.805 264.192 276.405 263.893 276.079C263.606 275.746 263.255 275.508 262.839 275.364C262.433 275.223 262.01 275.192 261.569 275.272C261.138 275.355 260.74 275.556 260.376 275.874C260.021 276.195 259.749 276.625 259.562 277.163C259.375 277.702 259.32 278.212 259.396 278.693C259.485 279.169 259.673 279.573 259.96 279.905C260.256 280.241 260.607 280.48 261.013 280.621C261.429 280.765 261.852 280.796 262.284 280.712C262.727 280.623 263.129 280.413 263.487 280.082C263.855 279.755 264.132 279.322 264.319 278.783ZM270.085 275.292C269.792 275.19 269.581 275.006 269.451 274.738C269.322 274.471 269.308 274.191 269.41 273.898C269.511 273.605 269.696 273.394 269.963 273.265C270.231 273.135 270.511 273.121 270.803 273.223C271.087 273.322 271.293 273.504 271.423 273.772C271.552 274.039 271.566 274.319 271.464 274.612C271.363 274.905 271.178 275.116 270.911 275.245C270.644 275.375 270.368 275.39 270.085 275.292ZM270.519 276.602L267.807 284.409L266.192 283.848L268.904 276.041L270.519 276.602ZM272.718 286.258C272.104 286.045 271.589 285.744 271.173 285.356C270.77 284.962 270.493 284.527 270.34 284.051C270.192 283.565 270.19 283.083 270.335 282.604L272.007 283.184C271.92 283.525 271.979 283.858 272.184 284.183C272.401 284.502 272.727 284.737 273.162 284.888C273.615 285.045 273.994 285.082 274.299 284.997C274.617 284.906 274.823 284.723 274.918 284.45C275.02 284.157 274.953 283.89 274.719 283.65C274.495 283.413 274.109 283.105 273.564 282.725C273.034 282.361 272.611 282.039 272.295 281.76C271.979 281.481 271.738 281.138 271.573 280.731C271.417 280.328 271.427 279.871 271.604 279.361C271.749 278.945 272.003 278.61 272.366 278.355C272.733 278.091 273.178 277.938 273.7 277.897C274.232 277.86 274.795 277.944 275.391 278.151C276.279 278.459 276.913 278.934 277.294 279.574C277.688 280.209 277.769 280.92 277.538 281.707L275.922 281.146C276.015 280.787 275.97 280.459 275.788 280.163C275.605 279.866 275.296 279.642 274.861 279.492C274.436 279.344 274.083 279.311 273.8 279.393C273.518 279.475 273.33 279.648 273.239 279.912C273.166 280.12 273.181 280.321 273.283 280.515C273.385 280.71 273.53 280.887 273.718 281.047C273.909 281.198 274.195 281.409 274.578 281.68C275.092 282.028 275.501 282.344 275.804 282.63C276.12 282.909 276.358 283.245 276.517 283.639C276.677 284.034 276.674 284.483 276.51 284.987C276.356 285.431 276.095 285.785 275.728 286.049C275.361 286.313 274.916 286.466 274.394 286.507C273.881 286.551 273.322 286.468 272.718 286.258ZM278.317 283.677C278.596 282.874 279.001 282.226 279.532 281.733C280.076 281.234 280.694 280.919 281.385 280.789C282.076 280.658 282.794 280.722 283.541 280.982C284.485 281.31 285.186 281.807 285.643 282.474C286.112 283.134 286.311 283.918 286.239 284.825L284.496 284.219C284.489 283.783 284.367 283.402 284.131 283.076C283.895 282.751 283.541 282.506 283.068 282.342C282.407 282.112 281.796 282.165 281.235 282.499C280.687 282.828 280.267 283.412 279.975 284.253C279.683 285.094 279.649 285.817 279.872 286.424C280.105 287.034 280.552 287.454 281.213 287.684C282.148 288.009 282.91 287.813 283.497 287.096L285.24 287.701C284.738 288.416 284.093 288.901 283.305 289.157C282.521 289.403 281.666 289.366 280.74 289.044C279.994 288.785 279.39 288.39 278.929 287.859C278.471 287.319 278.181 286.689 278.061 285.97C277.953 285.244 278.038 284.48 278.317 283.677ZM289.886 282.169C289.594 282.068 289.382 281.883 289.253 281.616C289.124 281.349 289.11 281.069 289.211 280.776C289.313 280.483 289.498 280.272 289.765 280.142C290.032 280.013 290.312 279.999 290.605 280.101C290.888 280.199 291.095 280.382 291.224 280.649C291.354 280.916 291.368 281.196 291.266 281.489C291.164 281.782 290.98 281.993 290.712 282.123C290.445 282.252 290.17 282.268 289.886 282.169ZM290.321 283.479L287.609 291.287L285.994 290.726L288.705 282.918L290.321 283.479ZM296.425 285.457C297.039 285.67 297.543 285.988 297.936 286.41C298.338 286.836 298.59 287.346 298.69 287.942C298.79 288.538 298.717 289.19 298.471 289.899L296.871 294.504L295.27 293.948L296.786 289.583C297.029 288.884 297.039 288.29 296.818 287.8C296.6 287.301 296.188 286.946 295.584 286.736C294.979 286.526 294.432 286.548 293.941 286.801C293.464 287.048 293.104 287.521 292.861 288.22L291.345 292.584L289.73 292.023L292.441 284.216L294.057 284.777L293.747 285.67C294.123 285.44 294.545 285.307 295.014 285.268C295.492 285.233 295.962 285.296 296.425 285.457ZM304.833 288.377C305.438 288.587 305.929 288.895 306.307 289.302C306.697 289.702 306.962 290.127 307.102 290.578L307.496 289.445L309.125 290.01L306.369 297.946C306.12 298.663 305.747 299.249 305.251 299.701C304.752 300.163 304.159 300.454 303.471 300.575C302.793 300.7 302.057 300.624 301.263 300.348C300.205 299.981 299.414 299.425 298.888 298.682C298.36 297.948 298.196 297.139 298.397 296.256L299.998 296.813C299.98 297.261 300.126 297.678 300.438 298.061C300.756 298.457 301.193 298.752 301.75 298.945C302.402 299.172 302.995 299.156 303.53 298.897C304.074 298.641 304.477 298.135 304.74 297.38L305.192 296.076C304.79 296.349 304.309 296.531 303.748 296.622C303.2 296.707 302.628 296.646 302.033 296.44C301.353 296.203 300.789 295.817 300.34 295.28C299.904 294.737 299.627 294.101 299.51 293.372C299.405 292.637 299.489 291.877 299.761 291.093C300.034 290.309 300.436 289.671 300.967 289.178C301.507 288.688 302.114 288.375 302.786 288.237C303.471 288.094 304.153 288.141 304.833 288.377ZM306.142 293.341C306.329 292.803 306.378 292.296 306.289 291.82C306.21 291.348 306.027 290.946 305.74 290.613C305.453 290.281 305.102 290.042 304.686 289.898C304.271 289.754 303.847 289.723 303.416 289.806C302.988 289.88 302.592 290.076 302.228 290.394C301.876 290.706 301.606 291.131 301.419 291.669C301.232 292.208 301.177 292.718 301.253 293.199C301.339 293.684 301.523 294.098 301.807 294.44C302.103 294.775 302.454 295.014 302.86 295.155C303.276 295.299 303.7 295.33 304.131 295.247C304.562 295.164 304.955 294.961 305.31 294.64C305.678 294.313 305.955 293.88 306.142 293.341ZM320.794 298.224C320.692 298.516 320.581 298.774 320.462 298.997L314.496 296.925C314.327 297.565 314.384 298.146 314.669 298.669C314.953 299.191 315.398 299.557 316.002 299.767C316.871 300.069 317.612 299.918 318.223 299.316L319.966 299.921C319.481 300.557 318.846 300.998 318.062 301.244C317.29 301.484 316.446 301.445 315.53 301.127C314.784 300.868 314.17 300.47 313.69 299.932C313.222 299.389 312.924 298.756 312.793 298.033C312.676 297.304 312.757 296.538 313.036 295.735C313.315 294.932 313.72 294.285 314.251 293.791C314.795 293.292 315.417 292.979 316.117 292.852C316.827 292.728 317.565 292.799 318.33 293.065C319.067 293.321 319.668 293.709 320.132 294.23C320.597 294.752 320.888 295.361 321.006 296.058C321.127 296.746 321.056 297.468 320.794 298.224ZM319.285 297.128C319.482 296.529 319.435 295.979 319.144 295.475C318.853 294.972 318.401 294.614 317.787 294.4C317.229 294.207 316.69 294.221 316.169 294.442C315.65 294.653 315.249 295.048 314.963 295.627L319.285 297.128ZM326.218 292.946L322.577 303.432L320.961 302.871L324.603 292.385L326.218 292.946ZM328.59 295.612C328.297 295.51 328.086 295.326 327.957 295.058C327.827 294.791 327.813 294.511 327.915 294.218C328.017 293.925 328.201 293.714 328.469 293.585C328.736 293.455 329.016 293.441 329.309 293.543C329.592 293.642 329.799 293.824 329.928 294.092C330.057 294.359 330.071 294.639 329.97 294.932C329.868 295.225 329.683 295.436 329.416 295.565C329.149 295.695 328.874 295.71 328.59 295.612ZM329.024 296.922L326.313 304.729L324.697 304.168L327.409 296.361L329.024 296.922ZM332.572 299.631L331.071 303.953C330.969 304.245 330.962 304.481 331.048 304.659C331.147 304.831 331.362 304.975 331.692 305.089L332.684 305.434L332.217 306.78L330.942 306.337C330.214 306.084 329.716 305.721 329.447 305.246C329.178 304.772 329.176 304.152 329.442 303.387L330.943 299.065L330.022 298.745L330.479 297.427L331.4 297.747L332.074 295.806L333.704 296.372L333.03 298.313L334.929 298.973L334.471 300.29L332.572 299.631ZM334.323 307.623C334.03 307.521 333.819 307.336 333.69 307.069C333.56 306.802 333.546 306.522 333.648 306.229C333.75 305.936 333.934 305.725 334.201 305.596C334.469 305.466 334.749 305.452 335.042 305.554C335.325 305.652 335.531 305.835 335.661 306.102C335.79 306.37 335.804 306.65 335.702 306.943C335.601 307.235 335.416 307.447 335.149 307.576C334.882 307.706 334.606 307.721 334.323 307.623Z" fill="#353535"/>
<defs>
<linearGradient id="paint0_linear_1273_6" x1="231.925" y1="205.711" x2="35.832" y2="134.047" gradientUnits="userSpaceOnUse">
<stop stop-color="#52AB70"/>
<stop offset="1" stop-color="#52AB70" stop-opacity="0.48"/>
</linearGradient>
</defs>
</svg>
