<svg width="78" height="79" viewBox="0 0 78 79" fill="none" xmlns="http://www.w3.org/2000/svg">
<g clip-path="url(#clip0_1_1526)">
<path d="M75.071 37.4366L75.0112 39.268C74.9701 39.8772 74.9122 40.4864 74.858 41.0938C74.787 41.7011 74.6899 42.3029 74.6077 42.9084C74.5125 43.5102 74.3817 44.1082 74.2715 44.7081C74.221 45.01 74.1314 45.3025 74.0679 45.6005L73.8587 46.4911C73.7148 47.0836 73.5261 47.6648 73.3636 48.2517C73.287 48.5479 73.1787 48.833 73.0853 49.1218L72.7939 49.9881C72.7024 50.2787 72.5809 50.5601 72.4726 50.8432L72.1382 51.6947C70.2777 56.2052 67.5131 60.3431 64.061 63.8047C60.6071 67.2644 56.4676 70.0441 51.9452 71.9239C47.4247 73.8094 42.5249 74.7819 37.6233 74.7949C32.7198 74.8043 27.8126 73.8578 23.2733 71.991C18.7323 70.1317 14.5666 67.365 11.0809 63.909C7.59714 60.453 4.79701 56.3095 2.901 51.7804C0.997509 47.2531 0.014944 42.3476 0 37.4366C0.00560398 34.981 0.240971 32.5255 0.728518 30.1165C1.2142 27.7094 1.93524 25.3508 2.88045 23.0834C4.76899 18.5505 7.56538 14.3996 11.0492 10.9343C14.533 7.47084 18.7005 4.69485 23.2472 2.82619C27.7902 0.950071 32.7067 -0.00568692 37.6195 -9.76977e-05C42.5324 0.00921768 47.4433 0.978017 51.977 2.86531C56.5125 4.74516 60.665 7.52859 64.1301 10.9939C67.5953 14.4611 70.373 18.6083 72.2428 23.1319C74.1202 27.6535 75.0747 32.546 75.071 37.4366ZM74.6488 37.4366C74.6395 32.6019 73.6812 27.7709 71.8151 23.3107C69.9564 18.8486 67.203 14.7629 63.7733 11.3516C60.3437 7.94219 56.2416 5.20906 51.7677 3.37021C47.2958 1.5239 42.4577 0.583045 37.6214 0.588634C32.7833 0.59795 27.9527 1.55184 23.49 3.40933C19.0274 5.25937 14.9384 7.99995 11.5274 11.4112C8.11644 14.8244 5.38356 18.9064 3.54359 23.3591C1.69427 27.8082 0.767746 32.6242 0.762142 37.4366C0.750934 42.2507 1.68493 47.0668 3.52677 51.5214C5.36115 55.9779 8.09029 60.0673 11.5012 63.4898C14.9122 66.9104 19.0012 69.6584 23.4695 71.5178C27.9359 73.3827 32.7758 74.3478 37.6233 74.3608C42.4707 74.3702 47.32 73.433 51.8051 71.5867C56.292 69.7479 60.4072 67.011 63.8499 63.596C67.2908 60.1791 70.0573 56.0841 71.9253 51.609L72.2615 50.765C72.3699 50.4818 72.4931 50.2042 72.5847 49.9154L72.878 49.0547C72.9732 48.7678 73.0816 48.4846 73.16 48.1902L73.4047 47.3146C73.4832 47.0221 73.5766 46.7333 73.6364 46.4352C73.7653 45.8427 73.9184 45.2559 74.0212 44.6597C74.4602 42.275 74.6544 39.853 74.6488 37.4366Z" fill="#D82EE7"/>
<path d="M78 40.671C77.9272 58.9534 64.444 75.3857 46.2815 78.4728C32.152 80.8743 14.4882 75.0317 7.45708 61.8709C-0.83869 46.3403 2.95147 24.5293 15.68 12.6336C24.9695 3.95164 39.6221 -0.0241634 52.1451 2.90832C69.8873 7.06111 78.0374 23.8158 78 40.671ZM77.7983 40.671C77.731 26.1893 65.5144 13.4123 52.7914 8.1212C40.6868 3.08717 27.9845 3.96096 17.2995 12.2796C3.35122 23.1339 -0.834954 42.6738 9.48572 57.2859C17.2398 68.265 27.652 76.6377 41.5461 76.6116C61.2348 76.5762 77.8282 60.4215 77.7983 40.671Z" fill="url(#paint0_linear_1_1526)"/>
<path d="M28.1221 42.813V40.6478H49.8776V42.813C49.8776 43.2063 49.8003 43.5958 49.65 43.9591C49.4998 44.3224 49.2796 44.6524 49.0022 44.9304C48.7247 45.2083 48.3953 45.4287 48.033 45.5791C47.6706 45.7294 47.2823 45.8068 46.8901 45.8068H42.3221H41.5721V46.5568V52.3772C41.5721 53.0613 41.3008 53.7171 40.8182 54.2004C40.3358 54.6837 39.6816 54.955 38.9998 54.955C38.3181 54.955 37.6639 54.6837 37.1815 54.2004C36.6989 53.7171 36.4276 53.0613 36.4276 52.3772V46.5568V45.8068H35.6776H31.1096C30.3176 45.8068 29.5579 45.4917 28.9975 44.9304C28.4371 44.369 28.1221 43.6074 28.1221 42.813ZM39.0804 23.1766V27.8377C39.0804 28.3672 39.2904 28.8752 39.6645 29.25C40.0387 29.6248 40.5465 29.8356 41.0762 29.8356C41.606 29.8356 42.1138 29.6248 42.488 29.25C42.8621 28.8752 43.0721 28.3672 43.0721 27.8377V23.1766H43.2332V29.5C43.2332 30.0294 43.4431 30.5375 43.8173 30.9123C44.1915 31.2871 44.6993 31.4979 45.229 31.4979C45.7588 31.4979 46.2665 31.2871 46.6407 30.9123C47.0149 30.5375 47.2248 30.0294 47.2248 29.5V23.1766H49.3818C49.5129 23.1766 49.6389 23.2288 49.732 23.322C49.8251 23.4153 49.8776 23.5421 49.8776 23.6746V36.6519H28.1221V23.6746C28.1221 23.5421 28.1746 23.4153 28.2677 23.322C28.3608 23.2288 28.4868 23.1766 28.6179 23.1766H39.0804Z" fill="#FBD3FF" stroke="#7E2F85" stroke-width="1.5"/>
</g>
<defs>
<linearGradient id="paint0_linear_1_1526" x1="65.428" y1="8.99299" x2="18.7771" y2="69.0735" gradientUnits="userSpaceOnUse">
<stop stop-color="#7E2F85"/>
<stop offset="0.4974" stop-color="#FBD3FF"/>
<stop offset="0.9948" stop-color="#D82EE7"/>
</linearGradient>
<clipPath id="clip0_1_1526">
<rect width="78" height="79" fill="white"/>
</clipPath>
</defs>
</svg>
