<svg width="78" height="79" viewBox="0 0 78 79" fill="none" xmlns="http://www.w3.org/2000/svg">
<g clip-path="url(#clip0_1_1468)">
<path d="M75.071 37.4366L75.0112 39.268C74.9701 39.8772 74.9122 40.4864 74.858 41.0938C74.787 41.7011 74.6899 42.3029 74.6077 42.9084C74.5125 43.5102 74.3817 44.1082 74.2715 44.7081C74.221 45.01 74.1314 45.3025 74.0679 45.6005L73.8587 46.4911C73.7148 47.0836 73.5261 47.6648 73.3636 48.2517C73.287 48.5479 73.1787 48.833 73.0853 49.1218L72.7939 49.9881C72.7024 50.2787 72.5809 50.5601 72.4726 50.8432L72.1382 51.6947C70.2777 56.2052 67.5131 60.3431 64.061 63.8047C60.6071 67.2644 56.4676 70.0441 51.9452 71.9239C47.4247 73.8094 42.5249 74.7819 37.6233 74.7949C32.7198 74.8043 27.8126 73.8578 23.2733 71.991C18.7323 70.1317 14.5666 67.365 11.0809 63.909C7.59714 60.453 4.79701 56.3095 2.901 51.7804C0.997509 47.2531 0.014944 42.3476 0 37.4366C0.00560398 34.981 0.240971 32.5255 0.728518 30.1165C1.2142 27.7094 1.93524 25.3508 2.88045 23.0834C4.76899 18.5505 7.56538 14.3996 11.0492 10.9343C14.533 7.47084 18.7005 4.69485 23.2472 2.82619C27.7902 0.950071 32.7067 -0.00568692 37.6195 -9.76977e-05C42.5324 0.00921768 47.4433 0.978017 51.977 2.86531C56.5125 4.74516 60.665 7.52859 64.1301 10.9939C67.5953 14.4611 70.373 18.6083 72.2428 23.1319C74.1202 27.6535 75.0747 32.546 75.071 37.4366ZM74.6488 37.4366C74.6395 32.6019 73.6812 27.7709 71.8151 23.3107C69.9564 18.8486 67.203 14.7629 63.7733 11.3516C60.3437 7.94219 56.2416 5.20906 51.7677 3.37021C47.2958 1.5239 42.4577 0.583045 37.6214 0.588634C32.7833 0.59795 27.9527 1.55184 23.49 3.40933C19.0274 5.25937 14.9384 7.99995 11.5274 11.4112C8.11644 14.8244 5.38356 18.9064 3.54359 23.3591C1.69427 27.8082 0.767746 32.6242 0.762142 37.4366C0.750934 42.2507 1.68493 47.0668 3.52677 51.5214C5.36115 55.9779 8.09029 60.0673 11.5012 63.4898C14.9122 66.9104 19.0012 69.6584 23.4695 71.5178C27.9359 73.3827 32.7758 74.3478 37.6233 74.3608C42.4707 74.3702 47.32 73.433 51.8051 71.5867C56.292 69.7479 60.4072 67.011 63.8499 63.596C67.2908 60.1791 70.0573 56.0841 71.9253 51.609L72.2615 50.765C72.3699 50.4818 72.4931 50.2042 72.5847 49.9154L72.878 49.0547C72.9732 48.7678 73.0816 48.4846 73.16 48.1902L73.4047 47.3146C73.4832 47.0221 73.5766 46.7333 73.6364 46.4352C73.7653 45.8427 73.9184 45.2559 74.0212 44.6597C74.4602 42.275 74.6544 39.853 74.6488 37.4366Z" fill="#55852F"/>
<path d="M78 40.671C77.9272 58.9534 64.444 75.3857 46.2815 78.4728C32.152 80.8743 14.4882 75.0317 7.45708 61.8709C-0.83869 46.3403 2.95147 24.5293 15.68 12.6336C24.9695 3.95164 39.6221 -0.0241634 52.1451 2.90832C69.8873 7.06111 78.0374 23.8158 78 40.671ZM77.7983 40.671C77.731 26.1893 65.5144 13.4123 52.7914 8.1212C40.6868 3.08717 27.9845 3.96096 17.2995 12.2796C3.35122 23.1339 -0.834954 42.6738 9.48572 57.2859C17.2398 68.265 27.652 76.6377 41.5461 76.6116C61.2348 76.5762 77.8282 60.4215 77.7983 40.671Z" fill="url(#paint0_linear_1_1468)"/>
<g clip-path="url(#clip1_1_1468)">
<path d="M59.8001 37.9337C59.8001 48.626 51.068 57.2967 40.3001 57.2967C29.5321 57.2967 20.8 48.626 20.8 37.9337C20.8 27.2364 29.5321 18.5657 40.3001 18.5657C51.068 18.5657 59.8001 27.2364 59.8001 37.9337Z" fill="#55852F"/>
<path d="M40.3001 52.5345C48.421 52.5345 55.0043 45.9975 55.0043 37.9337C55.0043 29.8698 48.421 23.3328 40.3001 23.3328C32.1792 23.3328 25.5959 29.8698 25.5959 37.9337C25.5959 45.9975 32.1792 52.5345 40.3001 52.5345Z" fill="#B5FF7C"/>
<path d="M47.5494 45.13C51.5523 41.1552 51.5523 34.7108 47.5494 30.736C43.5465 26.7612 37.0565 26.7612 33.0536 30.736C29.0507 34.7108 29.0507 41.1552 33.0536 45.13C37.0565 49.1048 43.5465 49.1048 47.5494 45.13Z" fill="#5AB314"/>
<path d="M40.3705 43.5534C43.4964 43.5146 45.9988 40.9669 45.9597 37.8629C45.9206 34.759 43.3549 32.2742 40.229 32.313C37.1031 32.3518 34.6008 34.8995 34.6398 38.0035C34.6789 41.1074 37.2446 43.5922 40.3705 43.5534Z" fill="#D8EDFC"/>
<path d="M40.3 37.9337L56.8793 18.5657" stroke="#293D6B" stroke-width="2" stroke-miterlimit="10"/>
<path d="M40.3 35.7573V37.9337L42.331 37.5693" stroke="#293D6B" stroke-width="2" stroke-miterlimit="10"/>
<path d="M52.1238 23.6523L56.6381 18.371L53.8229 17.3627L49.0522 22.8786L52.1238 23.6523Z" fill="#5B509D"/>
<path d="M52.5862 24.0367L57.1105 18.7654L58.5634 21.3611L53.848 26.9219L52.5862 24.0367Z" fill="#5B509D"/>
</g>
</g>
<defs>
<linearGradient id="paint0_linear_1_1468" x1="65.428" y1="8.99299" x2="18.7771" y2="69.0735" gradientUnits="userSpaceOnUse">
<stop stop-color="#55852F"/>
<stop offset="0.4974" stop-color="#B5FF7C"/>
<stop offset="0.9948" stop-color="#5AB314"/>
</linearGradient>
<clipPath id="clip0_1_1468">
<rect width="78" height="79" fill="white"/>
</clipPath>
<clipPath id="clip1_1_1468">
<rect width="39" height="39.9341" fill="white" transform="translate(20.8 17.3627)"/>
</clipPath>
</defs>
</svg>
